<?xml version="1.0" encoding="utf-8"?>
<!-- Generator: Adobe Illustrator 18.0.0, SVG Export Plug-In . SVG Version: 6.00 Build 0)  -->
<!DOCTYPE svg PUBLIC "-//W3C//DTD SVG 1.1//EN" "http://www.w3.org/Graphics/SVG/1.1/DTD/svg11.dtd">
<svg version="1.1" id="Layer_1" xmlns="http://www.w3.org/2000/svg" xmlns:xlink="http://www.w3.org/1999/xlink" x="0px" y="0px"
	 viewBox="0 0 250 250" enable-background="new 0 0 250 250" xml:space="preserve">
<g>
	<path fill="#B3B3B3" d="M97.3,166.7c0.6,1.2,1.2,2.2,1.6,2.9C98.4,168.6,97.8,167.7,97.3,166.7L97.3,166.7z"/>
	<path fill="#B3B3B3" d="M99.4,170.3L99.4,170.3c-0.1-0.2-0.2-0.3-0.3-0.5C99.2,170.1,99.4,170.3,99.4,170.3z"/>
	<path fill="#B3B3B3" d="M129,193.2c-1.4-0.4-2.7-0.9-4-1.4l0,0C125.1,191.9,126.7,192.5,129,193.2z"/>
	<path fill="#B3B3B3" d="M129.9,193.5L129.9,193.5c-0.2-0.1-0.4-0.1-0.7-0.2C129.5,193.4,129.7,193.4,129.9,193.5z"/>
	<path fill="#B3B3B3" d="M177.9,88.6h-32.7c-2.8,0-5.6,0.2-8.3,0.6c-0.6,0.1-1.2,0.2-1.8,0.3c10,5.8,18.3,14.2,23.7,24.5h20.7
		c15.8,0,28.6,12.8,28.6,28.6s-12.8,28.6-28.6,28.6h-35.7c-7.1,0-13.6-2.6-18.7-6.9l0,0l0,0c-1.1-0.9-1.9-1.7-2.6-2.5
		c-1.5-1.7-2.2-2.8-2.2-2.8l0,0l0,0c-3.2-4.6-5.2-10.3-5.2-16.4c0-5.9,1.8-11.4,4.9-16c0.1-0.1,0.2-0.2,0.3-0.4
		c-3.7-3.2-8.6-5.1-13.9-5.1H95.6c-2.9,6.6-4.5,13.8-4.5,21.5c0,7.6,1.6,14.9,4.5,21.5c0.5,1.2,1.1,2.4,1.7,3.6c0.5,1,1,1.9,1.6,2.9
		c0,0.1,0.1,0.1,0.1,0.2c0.1,0.2,0.2,0.3,0.3,0.5c6,9.6,15,17.2,25.6,21.5c1.3,0.5,2.6,1,4,1.4c0.1,0,0.1,0,0.2,0.1
		c0.2,0.1,0.5,0.1,0.7,0.2c0.6,0.2,1.2,0.3,1.8,0.5l0,0c4.3,1.1,8.8,1.7,13.5,1.7h32.7c29.8,0,54-24.2,54-54
		C231.9,112.8,207.7,88.6,177.9,88.6z"/>
	<path fill="#B3B3B3" d="M72.3,196.7H105c2.8,0,5.6-0.2,8.3-0.6c0.6-0.1,1.2-0.2,1.8-0.3c-10-5.8-18.3-14.2-23.7-24.5H70.7
		c-15.8,0-28.6-12.8-28.6-28.6s12.8-28.6,28.6-28.6h35.7c7.1,0,13.6,2.6,18.7,6.9l0,0l0,0c1.1,0.9,1.9,1.7,2.6,2.5
		c1.5,1.6,2.2,2.8,2.2,2.8l0,0l0,0c3.2,4.6,5.2,10.3,5.2,16.4c0,5.9-1.8,11.4-4.9,16c-0.1,0.1-0.2,0.3-0.3,0.4
		c3.7,3.2,8.6,5.1,13.9,5.1h10.9c2.9-6.6,4.5-13.8,4.5-21.5c0-7.6-1.6-14.9-4.5-21.5c-0.5-1.2-1.1-2.4-1.7-3.6c-0.5-1-1-1.9-1.6-2.9
		c0-0.1-0.1-0.1-0.1-0.2c-0.1-0.2-0.2-0.3-0.3-0.5c-6-9.6-15-17.2-25.6-21.5c-1.3-0.5-2.6-1-4-1.4c-0.1,0-0.1,0-0.2-0.1
		c-0.2-0.1-0.5-0.1-0.7-0.2c-0.6-0.2-1.2-0.3-1.8-0.5l0,0c-4.3-1.1-8.8-1.7-13.5-1.7H72.3c-29.8,0-54,24.2-54,54
		S42.5,196.7,72.3,196.7z"/>
	<path fill="#B3B3B3" d="M131.7,194L131.7,194L131.7,194z"/>
	<path fill="#B3B3B3" d="M129,193.2c0.1,0,0.1,0,0.2,0.1C129.2,193.3,129.1,193.3,129,193.2z"/>
	<path fill="#B3B3B3" d="M120.4,158.1c0,0,0.7,1.2,2.2,2.8l0,0C121.8,160,121.1,159,120.4,158.1L120.4,158.1z"/>
	<path fill="#B3B3B3" d="M99,169.8c0-0.1-0.1-0.1-0.1-0.2C99,169.7,99,169.7,99,169.8z"/>
	<path fill="#B3B3B3" d="M122.6,160.8C122.6,160.9,122.6,160.9,122.6,160.8c0.7,0.8,1.5,1.6,2.6,2.5l0,0
		C124.3,162.6,123.4,161.7,122.6,160.8z"/>
	<path fill="#B3B3B3" d="M125.2,163.4C125.2,163.3,125.2,163.3,125.2,163.4C125.2,163.3,125.2,163.3,125.2,163.4
		C125.2,163.3,125.2,163.3,125.2,163.4z"/>
	<path fill="#B3B3B3" d="M125.2,163.3L125.2,163.3L125.2,163.3z"/>
</g>
</svg>
