<?xml version="1.0" encoding="utf-8"?>
<!-- Generator: Adobe Illustrator 18.0.0, SVG Export Plug-In . SVG Version: 6.00 Build 0)  -->
<!DOCTYPE svg PUBLIC "-//W3C//DTD SVG 1.1//EN" "http://www.w3.org/Graphics/SVG/1.1/DTD/svg11.dtd">
<svg version="1.1" id="Layer_1" xmlns="http://www.w3.org/2000/svg" xmlns:xlink="http://www.w3.org/1999/xlink" x="0px" y="0px"
	 viewBox="0 0 10 10" enable-background="new 0 0 10 10" xml:space="preserve">
<g>
	<path fill="#B3B3B3" d="M14.2,4.8c0,0.4-0.6,0.4-0.6,0C13.6,4.4,14.2,4.4,14.2,4.8"/>
	<path fill="#B3B3B3" d="M14.2,5.6c0,0.4-0.6,0.4-0.6,0C13.6,5.2,14.2,5.2,14.2,5.6"/>
	<path fill="#B3B3B3" d="M13.4,4.8c0,0.4-0.6,0.4-0.6,0C12.8,4.4,13.4,4.4,13.4,4.8"/>
	<path fill="#B3B3B3" d="M13.4,5.6c0,0.4-0.6,0.4-0.6,0C12.8,5.2,13.4,5.2,13.4,5.6"/>
	<path fill="#B3B3B3" d="M13.4,10.8c0,0.4-0.6,0.4-0.6,0S13.4,10.4,13.4,10.8"/>
	<path fill="#B3B3B3" d="M12.5,3.9c0,0.4-0.6,0.4-0.6,0C11.9,3.5,12.5,3.5,12.5,3.9"/>
	<path fill="#B3B3B3" d="M12.5,4.8c0,0.4-0.6,0.4-0.6,0C11.9,4.4,12.5,4.4,12.5,4.8"/>
	<path fill="#B3B3B3" d="M12.5,5.6c0,0.4-0.6,0.4-0.6,0C11.9,5.2,12.5,5.2,12.5,5.6"/>
	<circle fill="#B3B3B3" cx="12.2" cy="6.5" r="0.3"/>
	<path fill="#B3B3B3" d="M12.5,9.1c0,0.4-0.6,0.4-0.6,0C11.9,8.7,12.5,8.7,12.5,9.1"/>
	<path fill="#B3B3B3" d="M12.5,10c0,0.4-0.6,0.4-0.6,0C11.9,9.6,12.5,9.6,12.5,10"/>
	<path fill="#B3B3B3" d="M11.6,4.8c0,0.4-0.6,0.4-0.6,0C11,4.4,11.6,4.4,11.6,4.8"/>
	<path fill="#B3B3B3" d="M11.6,5.6C11.6,6,11,6,11,5.6C11,5.2,11.6,5.2,11.6,5.6"/>
	<path fill="#B3B3B3" d="M11.6,6.5c0,0.4-0.6,0.4-0.6,0C11,6.1,11.6,6.1,11.6,6.5"/>
	<path fill="#B3B3B3" d="M11.6,7.4c0,0.4-0.6,0.4-0.6,0C11,7,11.6,7,11.6,7.4"/>
	<path fill="#B3B3B3" d="M11.6,8.2c0,0.4-0.6,0.4-0.6,0C11,7.8,11.6,7.8,11.6,8.2"/>
	<path fill="#B3B3B3" d="M11.6,10c0,0.4-0.6,0.4-0.6,0C11,9.6,11.6,9.6,11.6,10"/>
	<path fill="#B3B3B3" d="M10.8,3.9c0,0.4-0.6,0.4-0.6,0C10.2,3.5,10.8,3.5,10.8,3.9"/>
	<path fill="#B3B3B3" d="M10.8,4.8c0,0.4-0.6,0.4-0.6,0C10.2,4.4,10.8,4.4,10.8,4.8"/>
	<path fill="#B3B3B3" d="M10.8,5.6c0,0.4-0.6,0.4-0.6,0C10.2,5.2,10.8,5.2,10.8,5.6"/>
	<circle fill="#B3B3B3" cx="10.5" cy="6.5" r="0.3"/>
	<path fill="#B3B3B3" d="M10.8,7.4c0,0.4-0.6,0.4-0.6,0C10.2,7,10.8,7,10.8,7.4"/>
	<path fill="#B3B3B3" d="M10.8,8.2c0,0.4-0.6,0.4-0.6,0C10.2,7.8,10.8,7.8,10.8,8.2"/>
	<path fill="#B3B3B3" d="M9.9,3.9c0,0.4-0.6,0.4-0.6,0C9.3,3.5,9.9,3.5,9.9,3.9"/>
	<path fill="#B3B3B3" d="M9.9,4.8c0,0.4-0.6,0.4-0.6,0C9.3,4.4,9.9,4.4,9.9,4.8"/>
	<path fill="#B3B3B3" d="M9.9,5.6c0,0.4-0.6,0.4-0.6,0C9.3,5.2,9.9,5.2,9.9,5.6"/>
	<path fill="#B3B3B3" d="M9.9,6.5c0,0.4-0.6,0.4-0.6,0C9.3,6.1,9.9,6.1,9.9,6.5"/>
	<path fill="#B3B3B3" d="M9.9,7.4c0,0.4-0.6,0.4-0.6,0C9.3,7,9.9,7,9.9,7.4"/>
	<circle fill="#B3B3B3" cx="8.7" cy="4.8" r="0.3"/>
	<path fill="#B3B3B3" d="M9,5.6C9,6,8.4,6,8.4,5.6C8.4,5.2,9,5.2,9,5.6"/>
	<circle fill="#B3B3B3" cx="8.7" cy="6.5" r="0.3"/>
	<path fill="#B3B3B3" d="M9,7.4c0,0.4-0.6,0.4-0.6,0C8.4,7,9,7,9,7.4"/>
	<path fill="#B3B3B3" d="M8.2,7.4c0,0.4-0.6,0.4-0.6,0C7.6,7,8.2,7,8.2,7.4"/>
	<path fill="#B3B3B3" d="M9,8.2c0,0.4-0.6,0.4-0.6,0C8.4,7.8,9,7.8,9,8.2"/>
	<path fill="#B3B3B3" d="M8.2,3.9c0,0.4-0.6,0.4-0.6,0C7.6,3.5,8.2,3.5,8.2,3.9"/>
	<path fill="#B3B3B3" d="M8.2,4.8c0,0.4-0.6,0.4-0.6,0C7.6,4.4,8.2,4.4,8.2,4.8"/>
	<path fill="#B3B3B3" d="M8.2,5.6c0,0.4-0.6,0.4-0.6,0C7.6,5.2,8.2,5.2,8.2,5.6"/>
	<circle fill="#B3B3B3" cx="7.9" cy="6.5" r="0.3"/>
	<path fill="#B3B3B3" d="M8.2,8.2c0,0.4-0.6,0.4-0.6,0C7.6,7.8,8.2,7.8,8.2,8.2"/>
	<path fill="#B3B3B3" d="M8.2,9.1c0,0.4-0.6,0.4-0.6,0C7.6,8.7,8.2,8.7,8.2,9.1"/>
	<path fill="#B3B3B3" d="M7.3,9.1c0,0.4-0.6,0.4-0.6,0C6.7,8.7,7.3,8.7,7.3,9.1"/>
	<path fill="#B3B3B3" d="M8.2,10c0,0.4-0.6,0.4-0.6,0C7.6,9.6,8.2,9.6,8.2,10"/>
	<path fill="#B3B3B3" d="M7.3,5.6c0,0.4-0.6,0.4-0.6,0C6.7,5.2,7.3,5.2,7.3,5.6"/>
	<path fill="#B3B3B3" d="M7.3,6.5c0,0.4-0.6,0.4-0.6,0C6.7,6.1,7.3,6.1,7.3,6.5"/>
	<circle fill="#B3B3B3" cx="7" cy="7.4" r="0.3"/>
	<circle fill="#B3B3B3" cx="6.1" cy="7.4" r="0.3"/>
	<path fill="#B3B3B3" d="M7.3,8.2c0,0.4-0.6,0.4-0.6,0C6.7,7.8,7.3,7.8,7.3,8.2"/>
	<path fill="#B3B3B3" d="M6.4,3.9c0,0.4-0.6,0.4-0.6,0C5.8,3.5,6.4,3.5,6.4,3.9"/>
	<path fill="#B3B3B3" d="M6.4,4.8c0,0.4-0.6,0.4-0.6,0C5.8,4.4,6.4,4.4,6.4,4.8"/>
	<path fill="#B3B3B3" d="M6.4,8.2c0,0.4-0.6,0.4-0.6,0C5.8,7.8,6.4,7.8,6.4,8.2"/>
	<path fill="#B3B3B3" d="M5.6,3.9c0,0.4-0.6,0.4-0.6,0C5,3.5,5.6,3.5,5.6,3.9"/>
	<path fill="#B3B3B3" d="M5.6,4.8c0,0.4-0.6,0.4-0.6,0C5,4.4,5.6,4.4,5.6,4.8"/>
	<path fill="#B3B3B3" d="M5.6,5.6C5.6,6,5,6,5,5.6C5,5.2,5.6,5.2,5.6,5.6"/>
	<path fill="#B3B3B3" d="M5.6,9.1c0,0.4-0.6,0.4-0.6,0C5,8.7,5.6,8.7,5.6,9.1"/>
	<path fill="#B3B3B3" d="M5.6,10c0,0.4-0.6,0.4-0.6,0C5,9.6,5.6,9.6,5.6,10"/>
	<path fill="#B3B3B3" d="M4.7,3.9c0,0.4-0.6,0.4-0.6,0C4.1,3.5,4.7,3.5,4.7,3.9"/>
	<path fill="#B3B3B3" d="M4.7,5.6c0,0.4-0.6,0.4-0.6,0C4.1,5.2,4.7,5.2,4.7,5.6"/>
	<path fill="#B3B3B3" d="M4.7,6.5c0,0.4-0.6,0.4-0.6,0C4.1,6.1,4.7,6.1,4.7,6.5"/>
	<path fill="#B3B3B3" d="M4.7,8.2c0,0.4-0.6,0.4-0.6,0C4.1,7.8,4.7,7.8,4.7,8.2"/>
	<path fill="#B3B3B3" d="M4.7,9.1c0,0.4-0.6,0.4-0.6,0C4.1,8.7,4.7,8.7,4.7,9.1"/>
	<path fill="#B3B3B3" d="M3.8,9.1c0,0.4-0.6,0.4-0.6,0C3.2,8.7,3.8,8.7,3.8,9.1"/>
	<path fill="#B3B3B3" d="M4.7,10c0,0.4-0.6,0.4-0.6,0C4.1,9.6,4.7,9.6,4.7,10"/>
	<path fill="#B3B3B3" d="M4.7,10.8c0,0.4-0.6,0.4-0.6,0S4.7,10.4,4.7,10.8"/>
	<path fill="#B3B3B3" d="M4.7,11.7c0,0.4-0.6,0.4-0.6,0C4.1,11.3,4.7,11.3,4.7,11.7"/>
	<path fill="#B3B3B3" d="M3.8,3.9c0,0.4-0.6,0.4-0.6,0C3.2,3.5,3.8,3.5,3.8,3.9"/>
	<path fill="#B3B3B3" d="M3.8,4.8c0,0.4-0.6,0.4-0.6,0C3.2,4.4,3.8,4.4,3.8,4.8"/>
	<path fill="#B3B3B3" d="M3.8,5.6c0,0.4-0.6,0.4-0.6,0C3.2,5.2,3.8,5.2,3.8,5.6"/>
	<circle fill="#B3B3B3" cx="3.5" cy="6.5" r="0.3"/>
	<path fill="#B3B3B3" d="M3.8,7.4c0,0.4-0.6,0.4-0.6,0C3.2,7,3.8,7,3.8,7.4"/>
	<path fill="#B3B3B3" d="M3.8,8.2c0,0.4-0.6,0.4-0.6,0C3.2,7.8,3.8,7.8,3.8,8.2"/>
	<path fill="#B3B3B3" d="M3,3.9c0,0.4-0.6,0.4-0.6,0C2.4,3.5,3,3.5,3,3.9"/>
	<path fill="#B3B3B3" d="M3,4.8c0,0.4-0.6,0.4-0.6,0C2.4,4.4,3,4.4,3,4.8"/>
	<path fill="#B3B3B3" d="M3,5.6C3,6,2.4,6,2.4,5.6C2.4,5.2,3,5.2,3,5.6"/>
	<path fill="#B3B3B3" d="M3,6.5c0,0.4-0.6,0.4-0.6,0C2.4,6.1,3,6.1,3,6.5"/>
	<circle fill="#B3B3B3" cx="2.7" cy="7.4" r="0.3"/>
	<path fill="#B3B3B3" d="M2.1,4.8c0,0.4-0.6,0.4-0.6,0C1.5,4.4,2.1,4.4,2.1,4.8"/>
	<path fill="#B3B3B3" d="M2.1,5.6c0,0.4-0.6,0.4-0.6,0C1.5,5.2,2.1,5.2,2.1,5.6"/>
	<path fill="#B3B3B3" d="M2.1,6.5c0,0.4-0.6,0.4-0.6,0C1.5,6.1,2.1,6.1,2.1,6.5"/>
	<path fill="#B3B3B3" d="M1.3,4.8c0,0.4-0.6,0.4-0.6,0C0.6,4.4,1.3,4.4,1.3,4.8"/>
	<path fill="#B3B3B3" d="M1.3,5.6c0,0.4-0.6,0.4-0.6,0C0.6,5.2,1.3,5.2,1.3,5.6"/>
</g>
</svg>
