<?xml version="1.0" encoding="utf-8"?>
<!-- Generator: Adobe Illustrator 18.0.0, SVG Export Plug-In . SVG Version: 6.00 Build 0)  -->
<!DOCTYPE svg PUBLIC "-//W3C//DTD SVG 1.1//EN" "http://www.w3.org/Graphics/SVG/1.1/DTD/svg11.dtd">
<svg version="1.1" id="Layer_1" xmlns="http://www.w3.org/2000/svg" xmlns:xlink="http://www.w3.org/1999/xlink" x="0px" y="0px"
	 viewBox="0 0 250 250" enable-background="new 0 0 250 250" xml:space="preserve">
<path fill="#B3B3B3" d="M182.9,106.6h-19.4v11.3h17.3v7.3h-17.3V143h-9V99.3h28.4V106.6z M147.9,122.1c0,3.1-0.5,5.9-1.5,8.5
	c-1,2.5-2.3,4.7-4.1,6.6c-1.8,1.8-3.9,3.2-6.3,4.2c-2.5,1-5.2,1.5-8.1,1.5h-13.3V99.3H128c2.9,0,5.6,0.5,8.1,1.5
	c2.4,1,4.5,2.4,6.3,4.3c1.7,1.8,3.1,4,4.1,6.6s1.5,5.4,1.5,8.5L147.9,122.1L147.9,122.1z M107.3,119.5c-0.7,1.7-1.8,3.2-3.2,4.4
	c-1.4,1.2-3.1,2.1-5.2,2.8c-2,0.7-4.3,1-6.9,1h-8v15.4h-9V99.3h17c2.6,0,4.9,0.4,6.9,1.1s3.7,1.7,5.2,3c1.4,1.3,2.5,2.8,3.2,4.6
	c0.7,1.8,1.1,3.7,1.1,5.8C108.4,115.9,108,117.8,107.3,119.5z M201.2,76.1h-45.5c-3.3,0-6.1-2.7-6.1-6.1V24.6c0-3.3-2.7-6.1-6.1-6.1
	H50.4c-3.3,0-6.1,2.7-6.1,6.1v200.9c0,3.3,2.7,6.1,6.1,6.1h150.9c3.3,0,6.1-2.7,6.1-6.1V82.2C207.3,78.9,204.5,76.1,201.2,76.1z
	 M97.6,108.8c-0.6-0.7-1.3-1.2-2.3-1.6c-0.9-0.4-2-0.6-3.3-0.6h-8v13.7h8c1.3,0,2.4-0.2,3.3-0.5s1.7-0.8,2.3-1.3
	c0.6-0.6,1-1.3,1.3-2c0.3-0.8,0.4-1.7,0.4-2.6s-0.1-1.8-0.4-2.7C98.6,110.2,98.1,109.5,97.6,108.8z M128,106.6h-4.4v29.1h4.4
	c3.5,0,6.3-1.2,8.1-3.5c1.9-2.3,2.8-5.7,2.8-10.1v-2c0-4.4-0.9-7.8-2.8-10.1C134.2,107.7,131.5,106.6,128,106.6z M156.9,28.2
	c0-3.3,1.9-4.1,4.3-1.8l38.1,38.1c2.3,2.4,1.6,4.3-1.8,4.3H163c-3.3,0-6.1-2.7-6.1-6.1V28.2z"/>
</svg>
