<?xml version="1.0" encoding="utf-8"?>
<!-- Generator: Adobe Illustrator 18.0.0, SVG Export Plug-In . SVG Version: 6.00 Build 0)  -->
<!DOCTYPE svg PUBLIC "-//W3C//DTD SVG 1.1//EN" "http://www.w3.org/Graphics/SVG/1.1/DTD/svg11.dtd">
<svg version="1.1" id="Layer_1" xmlns="http://www.w3.org/2000/svg" xmlns:xlink="http://www.w3.org/1999/xlink" x="0px" y="0px"
	 viewBox="0 0 250 250" enable-background="new 0 0 250 250" xml:space="preserve">
<rect x="39.8" y="11.6" fill="none" stroke="#FFFFFF" stroke-width="3" stroke-miterlimit="10" width="170.3" height="224.4"/>
<line fill="none" stroke="#FFFFFF" stroke-width="3" stroke-miterlimit="10" x1="39.8" y1="215.1" x2="210.2" y2="215.1"/>
<line fill="none" stroke="#FFFFFF" stroke-width="3" stroke-miterlimit="10" x1="39.8" y1="197.1" x2="210.2" y2="197.1"/>
<line fill="none" stroke="#FFFFFF" stroke-width="3" stroke-miterlimit="10" x1="39.8" y1="179" x2="210.2" y2="179"/>
<line fill="none" stroke="#FFFFFF" stroke-width="3" stroke-miterlimit="10" x1="39.8" y1="161" x2="210.2" y2="161"/>
<line fill="none" stroke="#FFFFFF" stroke-width="3" stroke-miterlimit="10" x1="39.8" y1="141.2" x2="210.2" y2="141.2"/>
<path fill="#FFFFFF" d="M182,139.8c-0.2-3.3-0.9-11.5-2.2-15.2c-1.7-4.9-3.9-7.1-6.6-8.9c-1.3-0.9-6.2-2.7-13.5-5.5
	c-6.6-2.5-14.2-5.3-16.9-6.8c-2.4-1.4-4.3-7.8-4.3-9.8c0-0.1,0.2-0.5,1.6-2.1c2.9-3.1,6.7-9.2,8.2-15c2.1-8,3.8-24.1-3.6-34
	c-4.2-5.6-10.7-8.6-19.4-8.9l-0.6,0l-0.2,0c-8.7,0.3-15.2,3.3-19.4,8.9c-7.4,9.9-5.7,26.1-3.6,34c1.6,5.8,5.3,11.8,8.2,15
	c0,0,0,0,0.1,0.1c0,0,0,0,0,0c0.4,0.5,1.4,1.5,1.6,2.1c0.8,2.1-2,8.4-4.3,9.7c-2.7,1.5-10.2,4.3-17,6.9c-7.3,2.7-12.1,4.6-13.4,5.4
	c-2.7,1.8-4.8,4-6.6,8.8c-1.4,3.8-2,12-2.2,15.3"/>
</svg>
