<?xml version="1.0" encoding="utf-8"?>
<!-- Generator: Adobe Illustrator 18.0.0, SVG Export Plug-In . SVG Version: 6.00 Build 0)  -->
<!DOCTYPE svg PUBLIC "-//W3C//DTD SVG 1.1//EN" "http://www.w3.org/Graphics/SVG/1.1/DTD/svg11.dtd">
<svg version="1.1" id="Layer_1" xmlns="http://www.w3.org/2000/svg" xmlns:xlink="http://www.w3.org/1999/xlink" x="0px" y="0px"
	 viewBox="14 48.7 472.3 472.5" enable-background="new 14 48.7 472.3 472.5" xml:space="preserve">
<path fill="#333333" d="M87.8,445c4.3-3,20.8-9.2,45.2-18.3c22.7-8.5,48-18,57.2-23.2c7.7-4.3,17-25.3,14.3-32.7
	c-0.7-2-4-5.7-5.5-7.2l0,0l-0.2-0.2c-9.7-10.5-22.3-30.8-27.7-50.5c-7.2-26.8-12.7-81.2,12.2-114.5c14.2-19,36.2-29.2,65.3-30h0.8
	h2.2c29.2,1,51.2,11,65.3,30c24.8,33.5,19.3,87.8,12.2,114.5c-5.3,19.7-18,40-27.7,50.5c-4.8,5.3-5.5,6.7-5.5,7
	c-0.2,6.7,6.2,28.3,14.3,33c9.2,5.2,34.5,14.7,56.8,23c24.7,9.2,41.2,15.5,45.5,18.3c2.3,1.5,4.5,3.2,6.7,5.2
	c41.5-42.7,67.2-100.8,67.2-165c0-130.5-105.8-236.3-236.3-236.3C119.8,48.8,14,154.7,14,285.2c0,64.2,25.7,122.5,67.2,165
	C83.3,448.3,85.5,446.7,87.8,445z"/>
</svg>
